<svg id="mermaid-svg" width="100%" xmlns="http://www.w3.org/2000/svg" class="flowchart" style="max-width: 516.3125px;" viewBox="0 0 516.3125 951" role="graphics-document document" aria-roledescription="flowchart-v2" xmlns:xlink="http://www.w3.org/1999/xlink"><style xmlns="http://www.w3.org/1999/xhtml">@import url("https://cdnjs.cloudflare.com/ajax/libs/font-awesome/6.7.2/css/all.min.css");</style><style>#mermaid-svg{font-family:"trebuchet ms",verdana,arial,sans-serif;font-size:16px;fill:#333;}@keyframes edge-animation-frame{from{stroke-dashoffset:0;}}@keyframes dash{to{stroke-dashoffset:0;}}#mermaid-svg .edge-animation-slow{stroke-dasharray:9,5!important;stroke-dashoffset:900;animation:dash 50s linear infinite;stroke-linecap:round;}#mermaid-svg .edge-animation-fast{stroke-dasharray:9,5!important;stroke-dashoffset:900;animation:dash 20s linear infinite;stroke-linecap:round;}#mermaid-svg .error-icon{fill:#552222;}#mermaid-svg .error-text{fill:#552222;stroke:#552222;}#mermaid-svg .edge-thickness-normal{stroke-width:1px;}#mermaid-svg .edge-thickness-thick{stroke-width:3.5px;}#mermaid-svg .edge-pattern-solid{stroke-dasharray:0;}#mermaid-svg .edge-thickness-invisible{stroke-width:0;fill:none;}#mermaid-svg .edge-pattern-dashed{stroke-dasharray:3;}#mermaid-svg .edge-pattern-dotted{stroke-dasharray:2;}#mermaid-svg .marker{fill:#333333;stroke:#333333;}#mermaid-svg .marker.cross{stroke:#333333;}#mermaid-svg svg{font-family:"trebuchet ms",verdana,arial,sans-serif;font-size:16px;}#mermaid-svg p{margin:0;}#mermaid-svg .label{font-family:"trebuchet ms",verdana,arial,sans-serif;color:#333;}#mermaid-svg .cluster-label text{fill:#333;}#mermaid-svg .cluster-label span{color:#333;}#mermaid-svg .cluster-label span p{background-color:transparent;}#mermaid-svg .label text,#mermaid-svg span{fill:#333;color:#333;}#mermaid-svg .node rect,#mermaid-svg .node circle,#mermaid-svg .node ellipse,#mermaid-svg .node polygon,#mermaid-svg .node path{fill:#ECECFF;stroke:#9370DB;stroke-width:1px;}#mermaid-svg .rough-node .label text,#mermaid-svg .node .label text,#mermaid-svg .image-shape .label,#mermaid-svg .icon-shape .label{text-anchor:middle;}#mermaid-svg .node .katex path{fill:#000;stroke:#000;stroke-width:1px;}#mermaid-svg .rough-node .label,#mermaid-svg .node .label,#mermaid-svg .image-shape .label,#mermaid-svg .icon-shape .label{text-align:center;}#mermaid-svg .node.clickable{cursor:pointer;}#mermaid-svg .root .anchor path{fill:#333333!important;stroke-width:0;stroke:#333333;}#mermaid-svg .arrowheadPath{fill:#333333;}#mermaid-svg .edgePath .path{stroke:#333333;stroke-width:2.0px;}#mermaid-svg .flowchart-link{stroke:#333333;fill:none;}#mermaid-svg .edgeLabel{background-color:rgba(232,232,232, 0.8);text-align:center;}#mermaid-svg .edgeLabel p{background-color:rgba(232,232,232, 0.8);}#mermaid-svg .edgeLabel rect{opacity:0.5;background-color:rgba(232,232,232, 0.8);fill:rgba(232,232,232, 0.8);}#mermaid-svg .labelBkg{background-color:rgba(232, 232, 232, 0.5);}#mermaid-svg .cluster rect{fill:#ffffde;stroke:#aaaa33;stroke-width:1px;}#mermaid-svg .cluster text{fill:#333;}#mermaid-svg .cluster span{color:#333;}#mermaid-svg div.mermaidTooltip{position:absolute;text-align:center;max-width:200px;padding:2px;font-family:"trebuchet ms",verdana,arial,sans-serif;font-size:12px;background:hsl(80, 100%, 96.2745098039%);border:1px solid #aaaa33;border-radius:2px;pointer-events:none;z-index:100;}#mermaid-svg .flowchartTitleText{text-anchor:middle;font-size:18px;fill:#333;}#mermaid-svg rect.text{fill:none;stroke-width:0;}#mermaid-svg .icon-shape,#mermaid-svg .image-shape{background-color:rgba(232,232,232, 0.8);text-align:center;}#mermaid-svg .icon-shape p,#mermaid-svg .image-shape p{background-color:rgba(232,232,232, 0.8);padding:2px;}#mermaid-svg .icon-shape rect,#mermaid-svg .image-shape rect{opacity:0.5;background-color:rgba(232,232,232, 0.8);fill:rgba(232,232,232, 0.8);}#mermaid-svg .label-icon{display:inline-block;height:1em;overflow:visible;vertical-align:-0.125em;}#mermaid-svg .node .label-icon path{fill:currentColor;stroke:revert;stroke-width:revert;}#mermaid-svg :root{--mermaid-font-family:"trebuchet ms",verdana,arial,sans-serif;}</style><g><marker id="mermaid-svg_flowchart-v2-pointEnd" class="marker flowchart-v2" viewBox="0 0 10 10" refX="5" refY="5" markerUnits="userSpaceOnUse" markerWidth="8" markerHeight="8" orient="auto"><path d="M 0 0 L 10 5 L 0 10 z" class="arrowMarkerPath" style="stroke-width: 1; stroke-dasharray: 1, 0;"/></marker><marker id="mermaid-svg_flowchart-v2-pointStart" class="marker flowchart-v2" viewBox="0 0 10 10" refX="4.5" refY="5" markerUnits="userSpaceOnUse" markerWidth="8" markerHeight="8" orient="auto"><path d="M 0 5 L 10 10 L 10 0 z" class="arrowMarkerPath" style="stroke-width: 1; stroke-dasharray: 1, 0;"/></marker><marker id="mermaid-svg_flowchart-v2-circleEnd" class="marker flowchart-v2" viewBox="0 0 10 10" refX="11" refY="5" markerUnits="userSpaceOnUse" markerWidth="11" markerHeight="11" orient="auto"><circle cx="5" cy="5" r="5" class="arrowMarkerPath" style="stroke-width: 1; stroke-dasharray: 1, 0;"/></marker><marker id="mermaid-svg_flowchart-v2-circleStart" class="marker flowchart-v2" viewBox="0 0 10 10" refX="-1" refY="5" markerUnits="userSpaceOnUse" markerWidth="11" markerHeight="11" orient="auto"><circle cx="5" cy="5" r="5" class="arrowMarkerPath" style="stroke-width: 1; stroke-dasharray: 1, 0;"/></marker><marker id="mermaid-svg_flowchart-v2-crossEnd" class="marker cross flowchart-v2" viewBox="0 0 11 11" refX="12" refY="5.2" markerUnits="userSpaceOnUse" markerWidth="11" markerHeight="11" orient="auto"><path d="M 1,1 l 9,9 M 10,1 l -9,9" class="arrowMarkerPath" style="stroke-width: 2; stroke-dasharray: 1, 0;"/></marker><marker id="mermaid-svg_flowchart-v2-crossStart" class="marker cross flowchart-v2" viewBox="0 0 11 11" refX="-1" refY="5.2" markerUnits="userSpaceOnUse" markerWidth="11" markerHeight="11" orient="auto"><path d="M 1,1 l 9,9 M 10,1 l -9,9" class="arrowMarkerPath" style="stroke-width: 2; stroke-dasharray: 1, 0;"/></marker><g class="root"><g class="clusters"/><g class="edgePaths"><path d="M249.949,47.5L249.866,51.583C249.783,55.667,249.616,63.833,249.533,71.417C249.449,79,249.449,86,249.449,89.5L249.449,93" id="L_Start_Foundation_0" class=" edge-thickness-normal edge-pattern-solid edge-thickness-normal edge-pattern-solid flowchart-link" style=";" data-edge="true" data-et="edge" data-id="L_Start_Foundation_0" data-points="W3sieCI6MjQ5Ljk0OTIxODc1LCJ5Ijo0Ny41MDAwMDAwMDAwMDAwMX0seyJ4IjoyNDkuNDQ5MjE4NzUsInkiOjcyfSx7IngiOjI0OS40NDkyMTg3NSwieSI6OTd9XQ==" marker-end="url(#mermaid-svg_flowchart-v2-pointEnd)"/><path d="M166.391,175L157.517,179.167C148.643,183.333,130.896,191.667,122.022,199.333C113.148,207,113.148,214,113.148,217.5L113.148,221" id="L_Foundation_Skills1_0" class=" edge-thickness-normal edge-pattern-solid edge-thickness-normal edge-pattern-solid flowchart-link" style=";" data-edge="true" data-et="edge" data-id="L_Foundation_Skills1_0" data-points="W3sieCI6MTY2LjM5MDkzMDE3NTc4MTI1LCJ5IjoxNzV9LHsieCI6MTEzLjE0ODQzNzUsInkiOjIwMH0seyJ4IjoxMTMuMTQ4NDM3NSwieSI6MjI1fV0=" marker-end="url(#mermaid-svg_flowchart-v2-pointEnd)"/><path d="M332.508,175L341.381,179.167C350.255,183.333,368.003,191.667,376.876,201.333C385.75,211,385.75,222,385.75,227.5L385.75,233" id="L_Foundation_Tools1_0" class=" edge-thickness-normal edge-pattern-solid edge-thickness-normal edge-pattern-solid flowchart-link" style=";" data-edge="true" data-et="edge" data-id="L_Foundation_Tools1_0" data-points="W3sieCI6MzMyLjUwNzUwNzMyNDIxODc1LCJ5IjoxNzV9LHsieCI6Mzg1Ljc1LCJ5IjoyMDB9LHsieCI6Mzg1Ljc1LCJ5IjoyMzd9XQ==" marker-end="url(#mermaid-svg_flowchart-v2-pointEnd)"/><path d="M113.148,303L113.148,307.167C113.148,311.333,113.148,319.667,121.419,327.717C129.689,335.767,146.23,343.533,154.5,347.417L162.77,351.3" id="L_Skills1_Intermediate_0" class=" edge-thickness-normal edge-pattern-solid edge-thickness-normal edge-pattern-solid flowchart-link" style=";" data-edge="true" data-et="edge" data-id="L_Skills1_Intermediate_0" data-points="W3sieCI6MTEzLjE0ODQzNzUsInkiOjMwM30seyJ4IjoxMTMuMTQ4NDM3NSwieSI6MzI4fSx7IngiOjE2Ni4zOTA5MzAxNzU3ODEyNSwieSI6MzUzfV0=" marker-end="url(#mermaid-svg_flowchart-v2-pointEnd)"/><path d="M385.75,291L385.75,297.167C385.75,303.333,385.75,315.667,377.48,325.717C369.209,335.767,352.669,343.533,344.399,347.417L336.128,351.3" id="L_Tools1_Intermediate_0" class=" edge-thickness-normal edge-pattern-solid edge-thickness-normal edge-pattern-solid flowchart-link" style=";" data-edge="true" data-et="edge" data-id="L_Tools1_Intermediate_0" data-points="W3sieCI6Mzg1Ljc1LCJ5IjoyOTF9LHsieCI6Mzg1Ljc1LCJ5IjozMjh9LHsieCI6MzMyLjUwNzUwNzMyNDIxODc1LCJ5IjozNTN9XQ==" marker-end="url(#mermaid-svg_flowchart-v2-pointEnd)"/><path d="M175.429,431L167.521,435.167C159.613,439.333,143.797,447.667,135.889,455.333C127.98,463,127.98,470,127.98,473.5L127.98,477" id="L_Intermediate_Skills2_0" class=" edge-thickness-normal edge-pattern-solid edge-thickness-normal edge-pattern-solid flowchart-link" style=";" data-edge="true" data-et="edge" data-id="L_Intermediate_Skills2_0" data-points="W3sieCI6MTc1LjQyOTE5OTIxODc1LCJ5Ijo0MzF9LHsieCI6MTI3Ljk4MDQ2ODc1LCJ5Ijo0NTZ9LHsieCI6MTI3Ljk4MDQ2ODc1LCJ5Ijo0ODF9XQ==" marker-end="url(#mermaid-svg_flowchart-v2-pointEnd)"/><path d="M323.469,431L331.377,435.167C339.285,439.333,355.102,447.667,363.01,457.333C370.918,467,370.918,478,370.918,483.5L370.918,489" id="L_Intermediate_Tools2_0" class=" edge-thickness-normal edge-pattern-solid edge-thickness-normal edge-pattern-solid flowchart-link" style=";" data-edge="true" data-et="edge" data-id="L_Intermediate_Tools2_0" data-points="W3sieCI6MzIzLjQ2OTIzODI4MTI1LCJ5Ijo0MzF9LHsieCI6MzcwLjkxNzk2ODc1LCJ5Ijo0NTZ9LHsieCI6MzcwLjkxNzk2ODc1LCJ5Ijo0OTN9XQ==" marker-end="url(#mermaid-svg_flowchart-v2-pointEnd)"/><path d="M127.98,559L127.98,563.167C127.98,567.333,127.98,575.667,135.299,583.689C142.617,591.712,157.254,599.424,164.572,603.28L171.89,607.135" id="L_Skills2_Advanced_0" class=" edge-thickness-normal edge-pattern-solid edge-thickness-normal edge-pattern-solid flowchart-link" style=";" data-edge="true" data-et="edge" data-id="L_Skills2_Advanced_0" data-points="W3sieCI6MTI3Ljk4MDQ2ODc1LCJ5Ijo1NTl9LHsieCI6MTI3Ljk4MDQ2ODc1LCJ5Ijo1ODR9LHsieCI6MTc1LjQyOTE5OTIxODc1LCJ5Ijo2MDl9XQ==" marker-end="url(#mermaid-svg_flowchart-v2-pointEnd)"/><path d="M370.918,547L370.918,553.167C370.918,559.333,370.918,571.667,363.6,581.689C356.281,591.712,341.645,599.424,334.326,603.28L327.008,607.135" id="L_Tools2_Advanced_0" class=" edge-thickness-normal edge-pattern-solid edge-thickness-normal edge-pattern-solid flowchart-link" style=";" data-edge="true" data-et="edge" data-id="L_Tools2_Advanced_0" data-points="W3sieCI6MzcwLjkxNzk2ODc1LCJ5Ijo1NDd9LHsieCI6MzcwLjkxNzk2ODc1LCJ5Ijo1ODR9LHsieCI6MzIzLjQ2OTIzODI4MTI1LCJ5Ijo2MDl9XQ==" marker-end="url(#mermaid-svg_flowchart-v2-pointEnd)"/><path d="M166.167,687L157.27,691.167C148.372,695.333,130.577,703.667,121.679,711.333C112.781,719,112.781,726,112.781,729.5L112.781,733" id="L_Advanced_Skills3_0" class=" edge-thickness-normal edge-pattern-solid edge-thickness-normal edge-pattern-solid flowchart-link" style=";" data-edge="true" data-et="edge" data-id="L_Advanced_Skills3_0" data-points="W3sieCI6MTY2LjE2NzE3NTI5Mjk2ODc1LCJ5Ijo2ODd9LHsieCI6MTEyLjc4MTI1LCJ5Ijo3MTJ9LHsieCI6MTEyLjc4MTI1LCJ5Ijo3Mzd9XQ==" marker-end="url(#mermaid-svg_flowchart-v2-pointEnd)"/><path d="M332.731,687L341.629,691.167C350.527,695.333,368.322,703.667,377.22,713.333C386.117,723,386.117,734,386.117,739.5L386.117,745" id="L_Advanced_Tools3_0" class=" edge-thickness-normal edge-pattern-solid edge-thickness-normal edge-pattern-solid flowchart-link" style=";" data-edge="true" data-et="edge" data-id="L_Advanced_Tools3_0" data-points="W3sieCI6MzMyLjczMTI2MjIwNzAzMTI1LCJ5Ijo2ODd9LHsieCI6Mzg2LjExNzE4NzUsInkiOjcxMn0seyJ4IjozODYuMTE3MTg3NSwieSI6NzQ5fV0=" marker-end="url(#mermaid-svg_flowchart-v2-pointEnd)"/><path d="M112.781,815L112.781,819.167C112.781,823.333,112.781,831.667,121.655,839.989C130.528,848.311,148.275,856.621,157.149,860.777L166.022,864.932" id="L_Skills3_Career_0" class=" edge-thickness-normal edge-pattern-solid edge-thickness-normal edge-pattern-solid flowchart-link" style=";" data-edge="true" data-et="edge" data-id="L_Skills3_Career_0" data-points="W3sieCI6MTEyLjc4MTI1LCJ5Ijo4MTV9LHsieCI6MTEyLjc4MTI1LCJ5Ijo4NDB9LHsieCI6MTY5LjY0NDUzMTI1LCJ5Ijo4NjYuNjI4NDA0ODM2MDgxOX1d" marker-end="url(#mermaid-svg_flowchart-v2-pointEnd)"/><path d="M386.117,803L386.117,809.167C386.117,815.333,386.117,827.667,377.244,837.989C368.37,848.311,350.623,856.621,341.75,860.777L332.876,864.932" id="L_Tools3_Career_0" class=" edge-thickness-normal edge-pattern-solid edge-thickness-normal edge-pattern-solid flowchart-link" style=";" data-edge="true" data-et="edge" data-id="L_Tools3_Career_0" data-points="W3sieCI6Mzg2LjExNzE4NzUsInkiOjgwM30seyJ4IjozODYuMTE3MTg3NSwieSI6ODQwfSx7IngiOjMyOS4yNTM5MDYyNSwieSI6ODY2LjYyODQwNDgzNjA4MTl9XQ==" marker-end="url(#mermaid-svg_flowchart-v2-pointEnd)"/></g><g class="edgeLabels"><g class="edgeLabel"><g class="label" data-id="L_Start_Foundation_0" transform="translate(0, 0)"><foreignObject width="0" height="0"><div xmlns="http://www.w3.org/1999/xhtml" class="labelBkg" style="display: table-cell; white-space: nowrap; line-height: 1.5; max-width: 200px; text-align: center;"><span class="edgeLabel "></span></div></foreignObject></g></g><g class="edgeLabel"><g class="label" data-id="L_Foundation_Skills1_0" transform="translate(0, 0)"><foreignObject width="0" height="0"><div xmlns="http://www.w3.org/1999/xhtml" class="labelBkg" style="display: table-cell; white-space: nowrap; line-height: 1.5; max-width: 200px; text-align: center;"><span class="edgeLabel "></span></div></foreignObject></g></g><g class="edgeLabel"><g class="label" data-id="L_Foundation_Tools1_0" transform="translate(0, 0)"><foreignObject width="0" height="0"><div xmlns="http://www.w3.org/1999/xhtml" class="labelBkg" style="display: table-cell; white-space: nowrap; line-height: 1.5; max-width: 200px; text-align: center;"><span class="edgeLabel "></span></div></foreignObject></g></g><g class="edgeLabel"><g class="label" data-id="L_Skills1_Intermediate_0" transform="translate(0, 0)"><foreignObject width="0" height="0"><div xmlns="http://www.w3.org/1999/xhtml" class="labelBkg" style="display: table-cell; white-space: nowrap; line-height: 1.5; max-width: 200px; text-align: center;"><span class="edgeLabel "></span></div></foreignObject></g></g><g class="edgeLabel"><g class="label" data-id="L_Tools1_Intermediate_0" transform="translate(0, 0)"><foreignObject width="0" height="0"><div xmlns="http://www.w3.org/1999/xhtml" class="labelBkg" style="display: table-cell; white-space: nowrap; line-height: 1.5; max-width: 200px; text-align: center;"><span class="edgeLabel "></span></div></foreignObject></g></g><g class="edgeLabel"><g class="label" data-id="L_Intermediate_Skills2_0" transform="translate(0, 0)"><foreignObject width="0" height="0"><div xmlns="http://www.w3.org/1999/xhtml" class="labelBkg" style="display: table-cell; white-space: nowrap; line-height: 1.5; max-width: 200px; text-align: center;"><span class="edgeLabel "></span></div></foreignObject></g></g><g class="edgeLabel"><g class="label" data-id="L_Intermediate_Tools2_0" transform="translate(0, 0)"><foreignObject width="0" height="0"><div xmlns="http://www.w3.org/1999/xhtml" class="labelBkg" style="display: table-cell; white-space: nowrap; line-height: 1.5; max-width: 200px; text-align: center;"><span class="edgeLabel "></span></div></foreignObject></g></g><g class="edgeLabel"><g class="label" data-id="L_Skills2_Advanced_0" transform="translate(0, 0)"><foreignObject width="0" height="0"><div xmlns="http://www.w3.org/1999/xhtml" class="labelBkg" style="display: table-cell; white-space: nowrap; line-height: 1.5; max-width: 200px; text-align: center;"><span class="edgeLabel "></span></div></foreignObject></g></g><g class="edgeLabel"><g class="label" data-id="L_Tools2_Advanced_0" transform="translate(0, 0)"><foreignObject width="0" height="0"><div xmlns="http://www.w3.org/1999/xhtml" class="labelBkg" style="display: table-cell; white-space: nowrap; line-height: 1.5; max-width: 200px; text-align: center;"><span class="edgeLabel "></span></div></foreignObject></g></g><g class="edgeLabel"><g class="label" data-id="L_Advanced_Skills3_0" transform="translate(0, 0)"><foreignObject width="0" height="0"><div xmlns="http://www.w3.org/1999/xhtml" class="labelBkg" style="display: table-cell; white-space: nowrap; line-height: 1.5; max-width: 200px; text-align: center;"><span class="edgeLabel "></span></div></foreignObject></g></g><g class="edgeLabel"><g class="label" data-id="L_Advanced_Tools3_0" transform="translate(0, 0)"><foreignObject width="0" height="0"><div xmlns="http://www.w3.org/1999/xhtml" class="labelBkg" style="display: table-cell; white-space: nowrap; line-height: 1.5; max-width: 200px; text-align: center;"><span class="edgeLabel "></span></div></foreignObject></g></g><g class="edgeLabel"><g class="label" data-id="L_Skills3_Career_0" transform="translate(0, 0)"><foreignObject width="0" height="0"><div xmlns="http://www.w3.org/1999/xhtml" class="labelBkg" style="display: table-cell; white-space: nowrap; line-height: 1.5; max-width: 200px; text-align: center;"><span class="edgeLabel "></span></div></foreignObject></g></g><g class="edgeLabel"><g class="label" data-id="L_Tools3_Career_0" transform="translate(0, 0)"><foreignObject width="0" height="0"><div xmlns="http://www.w3.org/1999/xhtml" class="labelBkg" style="display: table-cell; white-space: nowrap; line-height: 1.5; max-width: 200px; text-align: center;"><span class="edgeLabel "></span></div></foreignObject></g></g></g><g class="nodes"><g class="node default  " id="flowchart-Start-0" transform="translate(249.44921875, 27.5)"><g class="basic label-container outer-path"><path d="M-86.265625 -19.5 C-26.564623049418778 -19.5, 33.136378901162445 -19.5, 86.265625 -19.5 C86.265625 -19.5, 86.265625 -19.5, 86.265625 -19.5 C86.62444362619597 -19.488493385055982, 86.98326225239192 -19.476986770111964, 87.5149942896239 -19.45993515863156 C88.00480868818619 -19.412683352690255, 88.49462308674848 -19.36543154674895, 88.75922965284786 -19.3399052695533 C89.22343347064634 -19.264856396246014, 89.68763728844482 -19.18980752293873, 89.99321825967675 -19.140403561325776 C90.39090876612262 -19.049633298402593, 90.78859927256849 -18.95886303547941, 91.21188938623538 -18.862249829261074 C91.49239615230414 -18.77899689350193, 91.7729029183729 -18.695743957742785, 92.4102352514606 -18.50658706670804 C92.66504638699826 -18.412814213381864, 92.91985752253592 -18.319041360055692, 93.5833315951478 -18.074876768247425 C93.8821546890221 -17.9425966488614, 94.18097778289642 -17.810316529475372, 94.72635791279238 -17.568892924097174 C95.06765032046124 -17.39084089362455, 95.40894272813011 -17.21278886315192, 95.83461726407678 -16.990714730406097 C96.15572077125287 -16.796059897342285, 96.47682427842896 -16.601405064278474, 96.9035555736057 -16.342718045390892 C97.22150100670345 -16.12093307489787, 97.5394464398012 -15.899148104404846, 97.92878034457871 -15.627565626425154 C98.29417147990598 -15.336175919468126, 98.65956261523326 -15.044786212511097, 98.90607870850187 -14.848196188198123 C99.26995686703413 -14.517731672307628, 99.63383502556637 -14.187267156417132, 99.83143473676799 -14.007812326905688 C100.07541166712534 -13.755886115433215, 100.31938859748269 -13.503959903960741, 100.70104594296865 -13.10986736009568 C100.86880470275942 -12.91280837510159, 101.03656346255019 -12.715749390107499, 101.51133890812658 -12.158051136245305 C101.76379561579081 -11.819782147254438, 102.01625232345505 -11.481513158263569, 102.25898396464063 -11.156274872382312 C102.50115762160613 -10.78423110255099, 102.7433312785716 -10.412187332719668, 102.94090887860425 -10.108655082055241 C103.08303307906546 -9.856299172500496, 103.22515727952667 -9.60394326294575, 103.5543114742735 -9.019496659696287 C103.7600128781016 -8.592353293342256, 103.96571428192972 -8.165209926988226, 104.09667114880834 -7.893275190886684 C104.20426733837479 -7.6275105224267366, 104.31186352794124 -7.361745853966789, 104.56575922997033 -6.734618561215508 C104.70247942525471 -6.322839116423844, 104.83919962053908 -5.911059671632179, 104.95964813421489 -5.548287939305138 C105.08373131245703 -5.075105002678191, 105.20781449069918 -4.601922066051244, 105.27671928754556 -4.339158212148133 C105.34828053761758 -3.9717063175038816, 105.41984178768959 -3.60425442285963, 105.51566977658177 -3.1121979531509023 C105.57832759463453 -2.6262362895194387, 105.64098541268729 -2.140274625887975, 105.67551770250937 -1.872449005199798 C105.69457552142168 -1.5756080924460458, 105.71363334033398 -1.278767179692294, 105.75560621591342 -0.6250057626472757 C105.75560621591342 -0.23559590362734378, 105.75560621591342 0.15381395539258813, 105.75560621591342 0.625005762647271 C105.73668228841488 0.9197612085562832, 105.71775836091635 1.2145166544652954, 105.67551770250937 1.8724490051997846 C105.63255110826965 2.2056894254092505, 105.58958451402995 2.538929845618717, 105.51566977658177 3.1121979531508885 C105.46527422667565 3.370968450815624, 105.41487867676952 3.629738948480359, 105.27671928754556 4.339158212148129 C105.17621276322846 4.72243314917239, 105.07570623891138 5.1057080861966515, 104.95964813421489 5.548287939305125 C104.8640469553834 5.836223457966261, 104.76844577655191 6.124158976627395, 104.56575922997033 6.734618561215495 C104.4340923193604 7.059838376028543, 104.30242540875048 7.3850581908415895, 104.09667114880834 7.893275190886679 C103.91462091887934 8.271306388585181, 103.73257068895032 8.649337586283682, 103.5543114742735 9.019496659696284 C103.39656822081916 9.299585779440951, 103.23882496736482 9.579674899185619, 102.94090887860425 10.108655082055236 C102.6769466317572 10.514171977000238, 102.41298438491017 10.91968887194524, 102.25898396464065 11.156274872382301 C102.05517613128039 11.42935880180946, 101.85136829792013 11.70244273123662, 101.51133890812659 12.158051136245302 C101.22233036269554 12.497537018760706, 100.9333218172645 12.837022901276113, 100.70104594296866 13.10986736009567 C100.38121553924046 13.440118510509533, 100.06138513551225 13.770369660923395, 99.83143473676799 14.007812326905684 C99.57753040632942 14.238401521869546, 99.32362607589084 14.468990716833408, 98.9060787085019 14.848196188198111 C98.56827681540696 15.117584208655419, 98.23047492231201 15.386972229112729, 97.92878034457871 15.627565626425152 C97.6542875533283 15.819039915000015, 97.37979476207789 16.01051420357488, 96.9035555736057 16.34271804539089 C96.55367289744642 16.554818979817476, 96.20379022128714 16.766919914244067, 95.83461726407678 16.990714730406093 C95.4152217518576 17.209513100495194, 94.99582623963842 17.428311470584294, 94.72635791279238 17.56889292409717 C94.29482684294499 17.759918927804247, 93.86329577309758 17.95094493151132, 93.5833315951478 18.07487676824742 C93.11768847192725 18.24623774195043, 92.6520453487067 18.41759871565344, 92.41023525146062 18.506587066708033 C91.96325145169725 18.63924951221196, 91.51626765193387 18.771911957715886, 91.21188938623541 18.86224982926107 C90.7442220981956 18.968991835941896, 90.27655481015579 19.07573384262272, 89.99321825967677 19.140403561325773 C89.6156733384275 19.201442096288762, 89.23812841717822 19.26248063125175, 88.75922965284788 19.3399052695533 C88.2698123082294 19.38711877217817, 87.78039496361092 19.43433227480304, 87.5149942896239 19.45993515863156 C87.03363063940698 19.475371553976508, 86.55226698919006 19.49080794932146, 86.265625 19.5 C86.265625 19.5, 86.265625 19.5, 86.265625 19.5 C19.632866137025317 19.5, -46.999892725949366 19.5, -86.265625 19.5 C-86.67781415179074 19.486781896179583, -87.09000330358148 19.47356379235917, -87.5149942896239 19.45993515863156 C-87.99502976066823 19.413626714067032, -88.47506523171256 19.367318269502505, -88.75922965284786 19.3399052695533 C-89.08593501927935 19.28708607954661, -89.41264038571083 19.234266889539928, -89.99321825967675 19.140403561325773 C-90.39337069238337 19.049071379799145, -90.79352312508999 18.957739198272517, -91.21188938623538 18.862249829261074 C-91.68228126951914 18.72263998743984, -92.15267315280289 18.583030145618604, -92.41023525146059 18.506587066708043 C-92.70320252756775 18.398772400940793, -92.99616980367492 18.290957735173542, -93.5833315951478 18.074876768247425 C-93.9361506795371 17.91869422559456, -94.2889697639264 17.762511682941696, -94.72635791279238 17.568892924097174 C-95.11137690077359 17.36802876468381, -95.4963958887548 17.167164605270443, -95.83461726407678 16.990714730406097 C-96.11618609335578 16.820026051415063, -96.39775492263477 16.64933737242403, -96.90355557360569 16.3427180453909 C-97.1705910260449 16.15644567354773, -97.43762647848412 15.970173301704559, -97.92878034457871 15.627565626425156 C-98.19497672474907 15.415281097022476, -98.46117310491941 15.202996567619797, -98.90607870850187 14.848196188198125 C-99.21429273266062 14.56828436635335, -99.52250675681938 14.288372544508574, -99.83143473676797 14.007812326905697 C-100.07293384689144 13.758444668257532, -100.31443295701492 13.509077009609367, -100.70104594296865 13.109867360095677 C-100.97693866524395 12.785788069770488, -101.25283138751925 12.4617087794453, -101.51133890812658 12.158051136245307 C-101.73267600171674 11.861479595058535, -101.9540130953069 11.564908053871765, -102.25898396464063 11.156274872382316 C-102.46989117754353 10.832264756846943, -102.68079839044643 10.50825464131157, -102.94090887860425 10.108655082055249 C-103.11255637352164 9.803877573635805, -103.28420386843904 9.499100065216362, -103.5543114742735 9.019496659696289 C-103.66764597457544 8.784155144849505, -103.78098047487735 8.54881363000272, -104.09667114880834 7.893275190886686 C-104.27201367416691 7.460175763233921, -104.44735619952547 7.027076335581156, -104.56575922997033 6.73461856121551 C-104.67260805847268 6.412806913815327, -104.77945688697504 6.0909952664151445, -104.95964813421489 5.5482879393051325 C-105.05960682005777 5.167102147817768, -105.15956550590063 4.785916356330402, -105.27671928754556 4.339158212148136 C-105.364441025947 3.888725625452692, -105.45216276434844 3.438293038757248, -105.51566977658177 3.112197953150904 C-105.54953149945945 2.8495731172652126, -105.58339322233711 2.586948281379521, -105.67551770250937 1.872449005199809 C-105.7073227743303 1.3770593389969652, -105.73912784615122 0.8816696727941212, -105.75560621591342 0.6250057626472781 C-105.75560621591342 0.28052387468082174, -105.75560621591342 -0.06395801328563466, -105.75560621591342 -0.6250057626472687 C-105.73922615993386 -0.880138356271922, -105.72284610395432 -1.1352709498965754, -105.67551770250937 -1.8724490051997822 C-105.63489056492782 -2.187545061546547, -105.59426342734626 -2.502641117893312, -105.51566977658177 -3.112197953150895 C-105.44585965881194 -3.470658153525398, -105.3760495410421 -3.8291183538999007, -105.27671928754556 -4.339158212148126 C-105.19168044185177 -4.663448186847403, -105.10664159615798 -4.987738161546681, -104.95964813421489 -5.548287939305123 C-104.87851333097694 -5.792653039582441, -104.797378527739 -6.03701813985976, -104.56575922997033 -6.734618561215485 C-104.46804357772277 -6.975978111470572, -104.37032792547521 -7.21733766172566, -104.09667114880834 -7.893275190886676 C-103.9116672899989 -8.277439662152936, -103.72666343118945 -8.661604133419196, -103.5543114742735 -9.019496659696282 C-103.41391956509958 -9.268776710656942, -103.27352765592566 -9.518056761617602, -102.94090887860425 -10.108655082055243 C-102.7774364202726 -10.359792676554092, -102.61396396194094 -10.61093027105294, -102.25898396464063 -11.156274872382308 C-102.01245070875704 -11.486606975624673, -101.76591745287345 -11.816939078867037, -101.51133890812659 -12.158051136245302 C-101.20230088401972 -12.52106478412296, -100.89326285991284 -12.884078432000615, -100.70104594296866 -13.10986736009567 C-100.47949291185536 -13.338639054562298, -100.25793988074204 -13.567410749028927, -99.83143473676799 -14.007812326905677 C-99.56468394796556 -14.250068335456925, -99.29793315916315 -14.492324344008175, -98.9060787085019 -14.848196188198107 C-98.647236840867 -15.05461568956556, -98.3883949732321 -15.261035190933013, -97.92878034457871 -15.627565626425149 C-97.62155375667919 -15.841873594519216, -97.31432716877968 -16.056181562613283, -96.90355557360571 -16.342718045390885 C-96.48600859846415 -16.59583747550009, -96.06846162332259 -16.848956905609295, -95.83461726407678 -16.99071473040609 C-95.488139278165 -17.171472073726534, -95.1416612922532 -17.352229417046978, -94.7263579127924 -17.56889292409717 C-94.44768482120243 -17.692253235200493, -94.16901172961248 -17.81561354630382, -93.58333159514781 -18.07487676824742 C-93.20142177118844 -18.21542311380018, -92.81951194722907 -18.35596945935294, -92.41023525146062 -18.506587066708033 C-92.02427529761262 -18.621137955064977, -91.63831534376463 -18.735688843421922, -91.21188938623541 -18.862249829261067 C-90.83701268419385 -18.947812990202955, -90.4621359821523 -19.03337615114484, -89.99321825967677 -19.140403561325773 C-89.58565930778242 -19.206294532001174, -89.17810035588808 -19.272185502676574, -88.75922965284788 -19.3399052695533 C-88.29946780067375 -19.384257942488013, -87.83970594849963 -19.428610615422723, -87.5149942896239 -19.45993515863156 C-87.08715135501208 -19.473655248798806, -86.65930842040027 -19.487375338966057, -86.265625 -19.5 C-86.265625 -19.5, -86.265625 -19.5, -86.265625 -19.5" stroke="none" stroke-width="0" fill="#4CAF50" style="fill:#4CAF50 !important;stroke:#2E7D32 !important;stroke-width:3px !important"/><path d="M-86.265625 -19.5 C-32.830294423453026 -19.5, 20.60503615309395 -19.5, 86.265625 -19.5 M-86.265625 -19.5 C-28.685118449337104 -19.5, 28.895388101325793 -19.5, 86.265625 -19.5 M86.265625 -19.5 C86.265625 -19.5, 86.265625 -19.5, 86.265625 -19.5 M86.265625 -19.5 C86.265625 -19.5, 86.265625 -19.5, 86.265625 -19.5 M86.265625 -19.5 C86.68030880641554 -19.486701897461316, 87.09499261283108 -19.473403794922636, 87.5149942896239 -19.45993515863156 M86.265625 -19.5 C86.52029566870354 -19.491833207341063, 86.7749663374071 -19.483666414682126, 87.5149942896239 -19.45993515863156 M87.5149942896239 -19.45993515863156 C87.9305734457123 -19.41984473725077, 88.34615260180071 -19.37975431586998, 88.75922965284786 -19.3399052695533 M87.5149942896239 -19.45993515863156 C87.88932373061678 -19.423824047655994, 88.26365317160966 -19.38771293668043, 88.75922965284786 -19.3399052695533 M88.75922965284786 -19.3399052695533 C89.18878556987012 -19.27045800014503, 89.61834148689238 -19.201010730736762, 89.99321825967675 -19.140403561325776 M88.75922965284786 -19.3399052695533 C89.11010184287079 -19.283178974924866, 89.4609740328937 -19.226452680296433, 89.99321825967675 -19.140403561325776 M89.99321825967675 -19.140403561325776 C90.45062470478584 -19.03600352508563, 90.90803114989492 -18.931603488845486, 91.21188938623538 -18.862249829261074 M89.99321825967675 -19.140403561325776 C90.4581653238871 -19.034282427982905, 90.92311238809746 -18.92816129464003, 91.21188938623538 -18.862249829261074 M91.21188938623538 -18.862249829261074 C91.57538775313269 -18.75436542200782, 91.93888612003 -18.646481014754563, 92.4102352514606 -18.50658706670804 M91.21188938623538 -18.862249829261074 C91.58419461947358 -18.75175159030603, 91.95649985271176 -18.641253351350986, 92.4102352514606 -18.50658706670804 M92.4102352514606 -18.50658706670804 C92.85975824272792 -18.34115845057669, 93.30928123399522 -18.175729834445338, 93.5833315951478 -18.074876768247425 M92.4102352514606 -18.50658706670804 C92.68895454851379 -18.404015788939528, 92.96767384556698 -18.301444511171013, 93.5833315951478 -18.074876768247425 M93.5833315951478 -18.074876768247425 C93.97456197903709 -17.90169068273663, 94.36579236292638 -17.728504597225836, 94.72635791279238 -17.568892924097174 M93.5833315951478 -18.074876768247425 C94.0085803416917 -17.886631762708312, 94.43382908823558 -17.6983867571692, 94.72635791279238 -17.568892924097174 M94.72635791279238 -17.568892924097174 C95.03972667558287 -17.40540864127165, 95.35309543837336 -17.241924358446123, 95.83461726407678 -16.990714730406097 M94.72635791279238 -17.568892924097174 C95.14581986693993 -17.350059891296603, 95.56528182108747 -17.131226858496035, 95.83461726407678 -16.990714730406097 M95.83461726407678 -16.990714730406097 C96.23553527935648 -16.74767587348777, 96.63645329463618 -16.504637016569436, 96.9035555736057 -16.342718045390892 M95.83461726407678 -16.990714730406097 C96.10442824598346 -16.827153727588943, 96.37423922789013 -16.66359272477179, 96.9035555736057 -16.342718045390892 M96.9035555736057 -16.342718045390892 C97.10927485744443 -16.199217178429258, 97.31499414128317 -16.055716311467624, 97.92878034457871 -15.627565626425154 M96.9035555736057 -16.342718045390892 C97.26207443698564 -16.0926308063285, 97.62059330036558 -15.842543567266112, 97.92878034457871 -15.627565626425154 M97.92878034457871 -15.627565626425154 C98.21270872083092 -15.40114030201543, 98.49663709708312 -15.174714977605706, 98.90607870850187 -14.848196188198123 M97.92878034457871 -15.627565626425154 C98.14558010691391 -15.454673585246802, 98.36237986924911 -15.281781544068448, 98.90607870850187 -14.848196188198123 M98.90607870850187 -14.848196188198123 C99.09180228361113 -14.679526951260412, 99.2775258587204 -14.5108577143227, 99.83143473676799 -14.007812326905688 M98.90607870850187 -14.848196188198123 C99.26415716047414 -14.522998812353578, 99.6222356124464 -14.197801436509033, 99.83143473676799 -14.007812326905688 M99.83143473676799 -14.007812326905688 C100.03968838752854 -13.792773334552708, 100.2479420382891 -13.577734342199728, 100.70104594296865 -13.10986736009568 M99.83143473676799 -14.007812326905688 C100.11797718731889 -13.711933721139186, 100.40451963786977 -13.416055115372684, 100.70104594296865 -13.10986736009568 M100.70104594296865 -13.10986736009568 C100.95512758517769 -12.811408605501923, 101.20920922738675 -12.512949850908164, 101.51133890812658 -12.158051136245305 M100.70104594296865 -13.10986736009568 C100.89264226212302 -12.884807421477547, 101.0842385812774 -12.659747482859412, 101.51133890812658 -12.158051136245305 M101.51133890812658 -12.158051136245305 C101.78002351955315 -11.798038234605341, 102.04870813097973 -11.43802533296538, 102.25898396464063 -11.156274872382312 M101.51133890812658 -12.158051136245305 C101.67938543155653 -11.932884104202394, 101.84743195498649 -11.707717072159483, 102.25898396464063 -11.156274872382312 M102.25898396464063 -11.156274872382312 C102.4296627560086 -10.894066415168325, 102.60034154737656 -10.631857957954338, 102.94090887860425 -10.108655082055241 M102.25898396464063 -11.156274872382312 C102.51704648748104 -10.75982153780923, 102.77510901032143 -10.363368203236151, 102.94090887860425 -10.108655082055241 M102.94090887860425 -10.108655082055241 C103.17318135326921 -9.696231783149095, 103.40545382793418 -9.283808484242948, 103.5543114742735 -9.019496659696287 M102.94090887860425 -10.108655082055241 C103.11863085150708 -9.79309172286506, 103.29635282440991 -9.47752836367488, 103.5543114742735 -9.019496659696287 M103.5543114742735 -9.019496659696287 C103.73896931576792 -8.636050700788282, 103.92362715726232 -8.252604741880278, 104.09667114880834 -7.893275190886684 M103.5543114742735 -9.019496659696287 C103.75163934639909 -8.609741111087416, 103.94896721852467 -8.199985562478545, 104.09667114880834 -7.893275190886684 M104.09667114880834 -7.893275190886684 C104.27295672503436 -7.457846409358649, 104.44924230126038 -7.022417627830614, 104.56575922997033 -6.734618561215508 M104.09667114880834 -7.893275190886684 C104.24252518390549 -7.533012904300788, 104.38837921900264 -7.172750617714893, 104.56575922997033 -6.734618561215508 M104.56575922997033 -6.734618561215508 C104.72284557053219 -6.26149953175265, 104.87993191109405 -5.788380502289792, 104.95964813421489 -5.548287939305138 M104.56575922997033 -6.734618561215508 C104.69776308632393 -6.3370439778367516, 104.82976694267755 -5.939469394457995, 104.95964813421489 -5.548287939305138 M104.95964813421489 -5.548287939305138 C105.06616744782491 -5.142083630747545, 105.17268676143495 -4.7358793221899536, 105.27671928754556 -4.339158212148133 M104.95964813421489 -5.548287939305138 C105.06920900995554 -5.130484836122106, 105.1787698856962 -4.712681732939074, 105.27671928754556 -4.339158212148133 M105.27671928754556 -4.339158212148133 C105.35889220047981 -3.9172176714820055, 105.44106511341408 -3.495277130815878, 105.51566977658177 -3.1121979531509023 M105.27671928754556 -4.339158212148133 C105.3695043496376 -3.8627265284353665, 105.46228941172963 -3.3862948447226, 105.51566977658177 -3.1121979531509023 M105.51566977658177 -3.1121979531509023 C105.56982467130078 -2.6921832838038244, 105.6239795660198 -2.2721686144567466, 105.67551770250937 -1.872449005199798 M105.51566977658177 -3.1121979531509023 C105.55439277790587 -2.8118700016026543, 105.59311577922999 -2.5115420500544063, 105.67551770250937 -1.872449005199798 M105.67551770250937 -1.872449005199798 C105.69213834916374 -1.6135690176133188, 105.70875899581813 -1.35468903002684, 105.75560621591342 -0.6250057626472757 M105.67551770250937 -1.872449005199798 C105.69428904007053 -1.5800702707337488, 105.71306037763169 -1.2876915362676995, 105.75560621591342 -0.6250057626472757 M105.75560621591342 -0.6250057626472757 C105.75560621591342 -0.1253396561178643, 105.75560621591342 0.3743264504115471, 105.75560621591342 0.625005762647271 M105.75560621591342 -0.6250057626472757 C105.75560621591342 -0.16134890960949855, 105.75560621591342 0.3023079434282786, 105.75560621591342 0.625005762647271 M105.75560621591342 0.625005762647271 C105.73306858549425 0.9760475484736253, 105.71053095507509 1.3270893342999797, 105.67551770250937 1.8724490051997846 M105.75560621591342 0.625005762647271 C105.72862273047582 1.0452953290152682, 105.70163924503822 1.4655848953832655, 105.67551770250937 1.8724490051997846 M105.67551770250937 1.8724490051997846 C105.64026224472649 2.1458833737861736, 105.60500678694362 2.4193177423725625, 105.51566977658177 3.1121979531508885 M105.67551770250937 1.8724490051997846 C105.62690946496832 2.249444896785975, 105.57830122742726 2.626440788372165, 105.51566977658177 3.1121979531508885 M105.51566977658177 3.1121979531508885 C105.43176991477092 3.543006011307519, 105.34787005296008 3.973814069464149, 105.27671928754556 4.339158212148129 M105.51566977658177 3.1121979531508885 C105.45352177328543 3.431314815092471, 105.39137376998909 3.7504316770340527, 105.27671928754556 4.339158212148129 M105.27671928754556 4.339158212148129 C105.20098640557015 4.627960513959062, 105.12525352359474 4.916762815769996, 104.95964813421489 5.548287939305125 M105.27671928754556 4.339158212148129 C105.204692724092 4.613826715106633, 105.13266616063844 4.888495218065136, 104.95964813421489 5.548287939305125 M104.95964813421489 5.548287939305125 C104.88050303039364 5.7866603819548885, 104.80135792657241 6.0250328246046525, 104.56575922997033 6.734618561215495 M104.95964813421489 5.548287939305125 C104.83481653318067 5.924260832405554, 104.70998493214645 6.300233725505983, 104.56575922997033 6.734618561215495 M104.56575922997033 6.734618561215495 C104.39757032434525 7.15004840982069, 104.2293814187202 7.565478258425885, 104.09667114880834 7.893275190886679 M104.56575922997033 6.734618561215495 C104.46411383677997 6.9856846475756535, 104.36246844358962 7.236750733935813, 104.09667114880834 7.893275190886679 M104.09667114880834 7.893275190886679 C103.90452394432538 8.29227297228711, 103.71237673984241 8.69127075368754, 103.5543114742735 9.019496659696284 M104.09667114880834 7.893275190886679 C103.98085307703869 8.13377389502611, 103.86503500526904 8.374272599165542, 103.5543114742735 9.019496659696284 M103.5543114742735 9.019496659696284 C103.38040603669769 9.328283373947238, 103.20650059912188 9.637070088198195, 102.94090887860425 10.108655082055236 M103.5543114742735 9.019496659696284 C103.34534708349655 9.390534095459826, 103.13638269271961 9.76157153122337, 102.94090887860425 10.108655082055236 M102.94090887860425 10.108655082055236 C102.75060286487297 10.401016223466446, 102.5602968511417 10.693377364877653, 102.25898396464065 11.156274872382301 M102.94090887860425 10.108655082055236 C102.68635392779545 10.499719844072814, 102.43179897698664 10.890784606090392, 102.25898396464065 11.156274872382301 M102.25898396464065 11.156274872382301 C102.0510050866974 11.434947621560694, 101.84302620875415 11.713620370739088, 101.51133890812659 12.158051136245302 M102.25898396464065 11.156274872382301 C101.98886684066822 11.518207210329129, 101.71874971669578 11.880139548275956, 101.51133890812659 12.158051136245302 M101.51133890812659 12.158051136245302 C101.21180538748452 12.509900253531633, 100.91227186684245 12.861749370817963, 100.70104594296866 13.10986736009567 M101.51133890812659 12.158051136245302 C101.19779475845205 12.526357935620549, 100.8842506087775 12.894664734995796, 100.70104594296866 13.10986736009567 M100.70104594296866 13.10986736009567 C100.40567571251499 13.414861373386003, 100.1103054820613 13.719855386676336, 99.83143473676799 14.007812326905684 M100.70104594296866 13.10986736009567 C100.37190380594508 13.449733639644519, 100.04276166892151 13.78959991919337, 99.83143473676799 14.007812326905684 M99.83143473676799 14.007812326905684 C99.53524361066623 14.276805270843552, 99.23905248456447 14.545798214781417, 98.9060787085019 14.848196188198111 M99.83143473676799 14.007812326905684 C99.63454708630157 14.186620481697528, 99.43765943583513 14.36542863648937, 98.9060787085019 14.848196188198111 M98.9060787085019 14.848196188198111 C98.64576613617304 15.055788537421893, 98.3854535638442 15.263380886645676, 97.92878034457871 15.627565626425152 M98.9060787085019 14.848196188198111 C98.53052872623587 15.147687305250518, 98.15497874396985 15.447178422302924, 97.92878034457871 15.627565626425152 M97.92878034457871 15.627565626425152 C97.69866267406564 15.78808575174167, 97.46854500355256 15.948605877058187, 96.9035555736057 16.34271804539089 M97.92878034457871 15.627565626425152 C97.64657424127448 15.824420387584873, 97.36436813797023 16.021275148744593, 96.9035555736057 16.34271804539089 M96.9035555736057 16.34271804539089 C96.54339376793287 16.561050248535462, 96.18323196226004 16.779382451680036, 95.83461726407678 16.990714730406093 M96.9035555736057 16.34271804539089 C96.60035170867756 16.526522010134013, 96.29714784374944 16.710325974877136, 95.83461726407678 16.990714730406093 M95.83461726407678 16.990714730406093 C95.46275149629548 17.184716863266203, 95.09088572851418 17.378718996126317, 94.72635791279238 17.56889292409717 M95.83461726407678 16.990714730406093 C95.5883249920409 17.119205250969486, 95.34203272000501 17.247695771532882, 94.72635791279238 17.56889292409717 M94.72635791279238 17.56889292409717 C94.48626881305708 17.67517324655989, 94.24617971332178 17.781453569022606, 93.5833315951478 18.07487676824742 M94.72635791279238 17.56889292409717 C94.4756203600592 17.67988700082692, 94.224882807326 17.79088107755667, 93.5833315951478 18.07487676824742 M93.5833315951478 18.07487676824742 C93.12609971802647 18.24314232563321, 92.66886784090514 18.411407883019, 92.41023525146062 18.506587066708033 M93.5833315951478 18.07487676824742 C93.24801332798572 18.198276990211152, 92.91269506082362 18.321677212174883, 92.41023525146062 18.506587066708033 M92.41023525146062 18.506587066708033 C92.08620052895344 18.602758871455194, 91.76216580644628 18.69893067620236, 91.21188938623541 18.86224982926107 M92.41023525146062 18.506587066708033 C92.05374057623094 18.61239281503747, 91.69724590100124 18.718198563366904, 91.21188938623541 18.86224982926107 M91.21188938623541 18.86224982926107 C90.96208910317736 18.91926511376988, 90.71228882011933 18.976280398278693, 89.99321825967677 19.140403561325773 M91.21188938623541 18.86224982926107 C90.82977965116764 18.94946388279124, 90.44766991609987 19.036677936321407, 89.99321825967677 19.140403561325773 M89.99321825967677 19.140403561325773 C89.71032266470658 19.186139927232446, 89.4274270697364 19.231876293139123, 88.75922965284788 19.3399052695533 M89.99321825967677 19.140403561325773 C89.71261938788852 19.185768610839748, 89.43202051610027 19.23113366035372, 88.75922965284788 19.3399052695533 M88.75922965284788 19.3399052695533 C88.31941277113219 19.38233387517522, 87.8795958894165 19.424762480797146, 87.5149942896239 19.45993515863156 M88.75922965284788 19.3399052695533 C88.41601671278536 19.373014609107177, 88.07280377272286 19.406123948661058, 87.5149942896239 19.45993515863156 M87.5149942896239 19.45993515863156 C87.11945811779314 19.47261923379772, 86.72392194596239 19.485303308963875, 86.265625 19.5 M87.5149942896239 19.45993515863156 C87.08417591126826 19.47375066548832, 86.65335753291261 19.487566172345083, 86.265625 19.5 M86.265625 19.5 C86.265625 19.5, 86.265625 19.5, 86.265625 19.5 M86.265625 19.5 C86.265625 19.5, 86.265625 19.5, 86.265625 19.5 M86.265625 19.5 C30.221208841294967 19.5, -25.823207317410066 19.5, -86.265625 19.5 M86.265625 19.5 C26.12994443960214 19.5, -34.00573612079572 19.5, -86.265625 19.5 M-86.265625 19.5 C-86.62442443704305 19.488494000414768, -86.98322387408608 19.476988000829536, -87.5149942896239 19.45993515863156 M-86.265625 19.5 C-86.71553960106695 19.48557211444943, -87.16545420213389 19.471144228898858, -87.5149942896239 19.45993515863156 M-87.5149942896239 19.45993515863156 C-87.79199305553291 19.43321342082407, -88.06899182144193 19.406491683016586, -88.75922965284786 19.3399052695533 M-87.5149942896239 19.45993515863156 C-87.84907042901249 19.427707235250082, -88.18314656840106 19.39547931186861, -88.75922965284786 19.3399052695533 M-88.75922965284786 19.3399052695533 C-89.25015478966799 19.260536300613516, -89.74107992648811 19.181167331673734, -89.99321825967675 19.140403561325773 M-88.75922965284786 19.3399052695533 C-89.13580223823365 19.27902393431214, -89.51237482361944 19.21814259907098, -89.99321825967675 19.140403561325773 M-89.99321825967675 19.140403561325773 C-90.35986891879419 19.05671794100137, -90.72651957791162 18.97303232067697, -91.21188938623538 18.862249829261074 M-89.99321825967675 19.140403561325773 C-90.26954126220572 19.077334639174644, -90.54586426473467 19.014265717023516, -91.21188938623538 18.862249829261074 M-91.21188938623538 18.862249829261074 C-91.66586338849001 18.727512728350067, -92.11983739074464 18.59277562743906, -92.41023525146059 18.506587066708043 M-91.21188938623538 18.862249829261074 C-91.47709880907249 18.78353706467569, -91.74230823190959 18.70482430009031, -92.41023525146059 18.506587066708043 M-92.41023525146059 18.506587066708043 C-92.66187542255277 18.41398115760988, -92.91351559364495 18.321375248511718, -93.5833315951478 18.074876768247425 M-92.41023525146059 18.506587066708043 C-92.71662115867194 18.393834220653986, -93.02300706588329 18.281081374599932, -93.5833315951478 18.074876768247425 M-93.5833315951478 18.074876768247425 C-93.91498546031148 17.928063440301816, -94.24663932547519 17.781250112356208, -94.72635791279238 17.568892924097174 M-93.5833315951478 18.074876768247425 C-94.03417304195773 17.875302633481017, -94.48501448876766 17.675728498714612, -94.72635791279238 17.568892924097174 M-94.72635791279238 17.568892924097174 C-95.00451339029081 17.42377938965333, -95.28266886778924 17.278665855209486, -95.83461726407678 16.990714730406097 M-94.72635791279238 17.568892924097174 C-95.03330576003347 17.40875842880098, -95.34025360727455 17.248623933504785, -95.83461726407678 16.990714730406097 M-95.83461726407678 16.990714730406097 C-96.15246111370766 16.798035920902073, -96.47030496333852 16.60535711139805, -96.90355557360569 16.3427180453909 M-95.83461726407678 16.990714730406097 C-96.16029017098504 16.793289900371875, -96.48596307789329 16.595865070337656, -96.90355557360569 16.3427180453909 M-96.90355557360569 16.3427180453909 C-97.19311232789572 16.140735788308046, -97.48266908218574 15.938753531225192, -97.92878034457871 15.627565626425156 M-96.90355557360569 16.3427180453909 C-97.17566909417242 16.152903433048, -97.44778261473915 15.963088820705096, -97.92878034457871 15.627565626425156 M-97.92878034457871 15.627565626425156 C-98.14713818803152 15.45343105701779, -98.36549603148433 15.279296487610424, -98.90607870850187 14.848196188198125 M-97.92878034457871 15.627565626425156 C-98.26635177994478 15.358361389873876, -98.60392321531086 15.089157153322596, -98.90607870850187 14.848196188198125 M-98.90607870850187 14.848196188198125 C-99.25200916773417 14.534031297941743, -99.59793962696646 14.219866407685359, -99.83143473676797 14.007812326905697 M-98.90607870850187 14.848196188198125 C-99.15375667987388 14.62326160779808, -99.40143465124589 14.398327027398032, -99.83143473676797 14.007812326905697 M-99.83143473676797 14.007812326905697 C-100.13005478262593 13.699462612395639, -100.42867482848388 13.391112897885579, -100.70104594296865 13.109867360095677 M-99.83143473676797 14.007812326905697 C-100.06847158809326 13.76305231682492, -100.30550843941855 13.518292306744144, -100.70104594296865 13.109867360095677 M-100.70104594296865 13.109867360095677 C-100.9507896345106 12.816504209191883, -101.20053332605254 12.523141058288092, -101.51133890812658 12.158051136245307 M-100.70104594296865 13.109867360095677 C-100.9624421442162 12.802816508245092, -101.22383834546376 12.495765656394505, -101.51133890812658 12.158051136245307 M-101.51133890812658 12.158051136245307 C-101.67355116615023 11.94070148833433, -101.83576342417388 11.723351840423353, -102.25898396464063 11.156274872382316 M-101.51133890812658 12.158051136245307 C-101.77177665542898 11.80908828122697, -102.03221440273137 11.46012542620863, -102.25898396464063 11.156274872382316 M-102.25898396464063 11.156274872382316 C-102.42405416484083 10.902682717319635, -102.589124365041 10.649090562256955, -102.94090887860425 10.108655082055249 M-102.25898396464063 11.156274872382316 C-102.51730008274787 10.759431947379527, -102.77561620085508 10.362589022376739, -102.94090887860425 10.108655082055249 M-102.94090887860425 10.108655082055249 C-103.13429511251472 9.765278241267566, -103.3276813464252 9.421901400479886, -103.5543114742735 9.019496659696289 M-102.94090887860425 10.108655082055249 C-103.16684412073376 9.707484181230193, -103.39277936286327 9.306313280405135, -103.5543114742735 9.019496659696289 M-103.5543114742735 9.019496659696289 C-103.76383135369045 8.584424147079755, -103.97335123310738 8.149351634463223, -104.09667114880834 7.893275190886686 M-103.5543114742735 9.019496659696289 C-103.74836719590218 8.616535801607059, -103.94242291753085 8.213574943517827, -104.09667114880834 7.893275190886686 M-104.09667114880834 7.893275190886686 C-104.26845662601635 7.468961740936649, -104.44024210322435 7.044648290986611, -104.56575922997033 6.73461856121551 M-104.09667114880834 7.893275190886686 C-104.24861505993712 7.5179707927629185, -104.4005589710659 7.142666394639152, -104.56575922997033 6.73461856121551 M-104.56575922997033 6.73461856121551 C-104.69234857571404 6.353351621108652, -104.81893792145775 5.9720846810017925, -104.95964813421489 5.5482879393051325 M-104.56575922997033 6.73461856121551 C-104.69897534831378 6.333392837871062, -104.83219146665724 5.9321671145266155, -104.95964813421489 5.5482879393051325 M-104.95964813421489 5.5482879393051325 C-105.0729280317309 5.116302594258465, -105.18620792924689 4.684317249211797, -105.27671928754556 4.339158212148136 M-104.95964813421489 5.5482879393051325 C-105.08438242886115 5.072622013633648, -105.20911672350742 4.596956087962164, -105.27671928754556 4.339158212148136 M-105.27671928754556 4.339158212148136 C-105.33140965260738 4.058334746368481, -105.38610001766918 3.777511280588827, -105.51566977658177 3.112197953150904 M-105.27671928754556 4.339158212148136 C-105.3416426348781 4.005790545149847, -105.40656598221065 3.6724228781515587, -105.51566977658177 3.112197953150904 M-105.51566977658177 3.112197953150904 C-105.57791740587234 2.6294176325579732, -105.64016503516292 2.146637311965043, -105.67551770250937 1.872449005199809 M-105.51566977658177 3.112197953150904 C-105.5646842612502 2.732051289067295, -105.61369874591864 2.3519046249836864, -105.67551770250937 1.872449005199809 M-105.67551770250937 1.872449005199809 C-105.70422170173603 1.4253610477934209, -105.73292570096268 0.9782730903870325, -105.75560621591342 0.6250057626472781 M-105.67551770250937 1.872449005199809 C-105.69551010759261 1.5610511584494322, -105.71550251267584 1.2496533116990554, -105.75560621591342 0.6250057626472781 M-105.75560621591342 0.6250057626472781 C-105.75560621591342 0.1661568546784623, -105.75560621591342 -0.2926920532903535, -105.75560621591342 -0.6250057626472687 M-105.75560621591342 0.6250057626472781 C-105.75560621591342 0.2229235208305686, -105.75560621591342 -0.17915872098614094, -105.75560621591342 -0.6250057626472687 M-105.75560621591342 -0.6250057626472687 C-105.73572527289075 -0.9346674978336811, -105.71584432986808 -1.2443292330200935, -105.67551770250937 -1.8724490051997822 M-105.75560621591342 -0.6250057626472687 C-105.73079517573063 -1.0114577406053054, -105.70598413554785 -1.397909718563342, -105.67551770250937 -1.8724490051997822 M-105.67551770250937 -1.8724490051997822 C-105.63316574978005 -2.200922387229351, -105.59081379705073 -2.5293957692589197, -105.51566977658177 -3.112197953150895 M-105.67551770250937 -1.8724490051997822 C-105.63297534053412 -2.202399163740288, -105.59043297855885 -2.5323493222807945, -105.51566977658177 -3.112197953150895 M-105.51566977658177 -3.112197953150895 C-105.44148971226066 -3.493096905477697, -105.36730964793954 -3.8739958578044984, -105.27671928754556 -4.339158212148126 M-105.51566977658177 -3.112197953150895 C-105.4483465901209 -3.4578882868669374, -105.38102340366005 -3.8035786205829796, -105.27671928754556 -4.339158212148126 M-105.27671928754556 -4.339158212148126 C-105.18089918193934 -4.704561803521138, -105.0850790763331 -5.069965394894149, -104.95964813421489 -5.548287939305123 M-105.27671928754556 -4.339158212148126 C-105.19368909287104 -4.655788329956071, -105.11065889819652 -4.9724184477640145, -104.95964813421489 -5.548287939305123 M-104.95964813421489 -5.548287939305123 C-104.86569861848038 -5.831248911874913, -104.77174910274589 -6.114209884444702, -104.56575922997033 -6.734618561215485 M-104.95964813421489 -5.548287939305123 C-104.82020772334026 -5.968260240047122, -104.68076731246563 -6.388232540789121, -104.56575922997033 -6.734618561215485 M-104.56575922997033 -6.734618561215485 C-104.41503297767649 -7.106915318475102, -104.26430672538265 -7.47921207573472, -104.09667114880834 -7.893275190886676 M-104.56575922997033 -6.734618561215485 C-104.45432135854054 -7.009872258151727, -104.34288348711075 -7.28512595508797, -104.09667114880834 -7.893275190886676 M-104.09667114880834 -7.893275190886676 C-103.95225377707837 -8.193160953320694, -103.80783640534841 -8.493046715754714, -103.5543114742735 -9.019496659696282 M-104.09667114880834 -7.893275190886676 C-103.96708955572582 -8.16235414152446, -103.8375079626433 -8.431433092162244, -103.5543114742735 -9.019496659696282 M-103.5543114742735 -9.019496659696282 C-103.32631568242844 -9.424326275194598, -103.09831989058337 -9.829155890692913, -102.94090887860425 -10.108655082055243 M-103.5543114742735 -9.019496659696282 C-103.34966041998024 -9.382875329760358, -103.14500936568697 -9.746253999824434, -102.94090887860425 -10.108655082055243 M-102.94090887860425 -10.108655082055243 C-102.79127563089763 -10.338531932685648, -102.64164238319101 -10.56840878331605, -102.25898396464063 -11.156274872382308 M-102.94090887860425 -10.108655082055243 C-102.74046526649627 -10.416590296899384, -102.5400216543883 -10.724525511743526, -102.25898396464063 -11.156274872382308 M-102.25898396464063 -11.156274872382308 C-102.01822630297991 -11.478868205533496, -101.77746864131917 -11.801461538684684, -101.51133890812659 -12.158051136245302 M-102.25898396464063 -11.156274872382308 C-102.08629228377158 -11.387665992211067, -101.91360060290253 -11.619057112039824, -101.51133890812659 -12.158051136245302 M-101.51133890812659 -12.158051136245302 C-101.33252427109812 -12.368096983740019, -101.15370963406967 -12.578142831234734, -100.70104594296866 -13.10986736009567 M-101.51133890812659 -12.158051136245302 C-101.33792089027308 -12.361757807780792, -101.16450287241956 -12.565464479316283, -100.70104594296866 -13.10986736009567 M-100.70104594296866 -13.10986736009567 C-100.36303234414638 -13.458894152312247, -100.02501874532409 -13.807920944528824, -99.83143473676799 -14.007812326905677 M-100.70104594296866 -13.10986736009567 C-100.3610661507481 -13.460924408423447, -100.02108635852754 -13.811981456751223, -99.83143473676799 -14.007812326905677 M-99.83143473676799 -14.007812326905677 C-99.47861889258053 -14.328230341601044, -99.12580304839305 -14.64864835629641, -98.9060787085019 -14.848196188198107 M-99.83143473676799 -14.007812326905677 C-99.52972594568922 -14.28181626818625, -99.22801715461046 -14.55582020946682, -98.9060787085019 -14.848196188198107 M-98.9060787085019 -14.848196188198107 C-98.60140492007196 -15.09116542676097, -98.29673113164202 -15.33413466532383, -97.92878034457871 -15.627565626425149 M-98.9060787085019 -14.848196188198107 C-98.67895009759307 -15.029325211251713, -98.45182148668427 -15.210454234305319, -97.92878034457871 -15.627565626425149 M-97.92878034457871 -15.627565626425149 C-97.59156940646999 -15.862789379223557, -97.25435846836127 -16.098013132021965, -96.90355557360571 -16.342718045390885 M-97.92878034457871 -15.627565626425149 C-97.67135353854928 -15.807135422484453, -97.41392673251985 -15.986705218543758, -96.90355557360571 -16.342718045390885 M-96.90355557360571 -16.342718045390885 C-96.50522255442685 -16.58418986248176, -96.106889535248 -16.825661679572633, -95.83461726407678 -16.99071473040609 M-96.90355557360571 -16.342718045390885 C-96.50819897195576 -16.58238554068436, -96.11284237030583 -16.822053035977838, -95.83461726407678 -16.99071473040609 M-95.83461726407678 -16.99071473040609 C-95.60461881339502 -17.110704774805725, -95.37462036271327 -17.23069481920536, -94.7263579127924 -17.56889292409717 M-95.83461726407678 -16.99071473040609 C-95.410457532684 -17.21199859058643, -94.98629780129124 -17.433282450766768, -94.7263579127924 -17.56889292409717 M-94.7263579127924 -17.56889292409717 C-94.3490517454913 -17.735915171971577, -93.97174557819021 -17.902937419845987, -93.58333159514781 -18.07487676824742 M-94.7263579127924 -17.56889292409717 C-94.356097314745 -17.73279630746235, -93.9858367166976 -17.896699690827532, -93.58333159514781 -18.07487676824742 M-93.58333159514781 -18.07487676824742 C-93.2335731145457 -18.203591122240947, -92.8838146339436 -18.332305476234477, -92.41023525146062 -18.506587066708033 M-93.58333159514781 -18.07487676824742 C-93.13397590186507 -18.240243817173962, -92.68462020858233 -18.405610866100503, -92.41023525146062 -18.506587066708033 M-92.41023525146062 -18.506587066708033 C-92.02280082895525 -18.62157556962284, -91.63536640644989 -18.736564072537654, -91.21188938623541 -18.862249829261067 M-92.41023525146062 -18.506587066708033 C-91.97811565866303 -18.634837893608328, -91.54599606586544 -18.763088720508627, -91.21188938623541 -18.862249829261067 M-91.21188938623541 -18.862249829261067 C-90.7320493686617 -18.971770182023523, -90.25220935108798 -19.08129053478598, -89.99321825967677 -19.140403561325773 M-91.21188938623541 -18.862249829261067 C-90.95588855800875 -18.920680347742277, -90.69988772978208 -18.97911086622349, -89.99321825967677 -19.140403561325773 M-89.99321825967677 -19.140403561325773 C-89.67579931669033 -19.191721394407153, -89.35838037370388 -19.243039227488534, -88.75922965284788 -19.3399052695533 M-89.99321825967677 -19.140403561325773 C-89.65773807097437 -19.194641396547457, -89.32225788227198 -19.24887923176914, -88.75922965284788 -19.3399052695533 M-88.75922965284788 -19.3399052695533 C-88.3421385450938 -19.380141547092887, -87.92504743733973 -19.420377824632475, -87.5149942896239 -19.45993515863156 M-88.75922965284788 -19.3399052695533 C-88.48345061134741 -19.366509342014027, -88.20767156984694 -19.393113414474755, -87.5149942896239 -19.45993515863156 M-87.5149942896239 -19.45993515863156 C-87.11319688295528 -19.472820019412215, -86.71139947628667 -19.485704880192866, -86.265625 -19.5 M-87.5149942896239 -19.45993515863156 C-87.1569874915449 -19.471415739827993, -86.7989806934659 -19.482896321024427, -86.265625 -19.5 M-86.265625 -19.5 C-86.265625 -19.5, -86.265625 -19.5, -86.265625 -19.5 M-86.265625 -19.5 C-86.265625 -19.5, -86.265625 -19.5, -86.265625 -19.5" stroke="#2E7D32" stroke-width="3" fill="none" stroke-dasharray="0 0" style="fill:#4CAF50 !important;stroke:#2E7D32 !important;stroke-width:3px !important"/></g><g class="label" style="color:#fff !important" transform="translate(-93.390625, -12)"><rect/><foreignObject width="186.78125" height="24"><div style="color: rgb(255, 255, 255) !important; display: table-cell; white-space: nowrap; line-height: 1.5; max-width: 200px; text-align: center;" xmlns="http://www.w3.org/1999/xhtml"><span style="color:#fff !important" class="nodeLabel "><p>Start: AI Engineer Journey</p></span></div></foreignObject></g></g><g class="node default  " id="flowchart-Foundation-1" transform="translate(249.44921875, 136)"><rect class="basic label-container" style="fill:#2196F3 !important;stroke:#1565C0 !important;stroke-width:2px !important" x="-103.8359375" y="-39" width="207.671875" height="78"/><g class="label" style="color:#fff !important" transform="translate(-73.8359375, -24)"><rect/><foreignObject width="147.671875" height="48"><div style="color: rgb(255, 255, 255) !important; display: table-cell; white-space: nowrap; line-height: 1.5; max-width: 200px; text-align: center;" xmlns="http://www.w3.org/1999/xhtml"><span style="color:#fff !important" class="nodeLabel "><p>Phase 1: Foundation<br />3-6 months</p></span></div></foreignObject></g></g><g class="node default  " id="flowchart-Skills1-3" transform="translate(113.1484375, 264)"><rect class="basic label-container" style="fill:#00BCD4 !important;stroke:#00838F !important" x="-105.1484375" y="-39" width="210.296875" height="78"/><g class="label" style="color:#fff !important" transform="translate(-75.1484375, -24)"><rect/><foreignObject width="150.296875" height="48"><div style="color: rgb(255, 255, 255) !important; display: table-cell; white-space: nowrap; line-height: 1.5; max-width: 200px; text-align: center;" xmlns="http://www.w3.org/1999/xhtml"><span style="color:#fff !important" class="nodeLabel "><p>Python Programming<br />ML Basics</p></span></div></foreignObject></g></g><g class="node default  " id="flowchart-Tools1-5" transform="translate(385.75, 264)"><rect class="basic label-container" style="fill:#FFC107 !important;stroke:#F57C00 !important" x="-117.453125" y="-27" width="234.90625" height="54"/><g class="label" style="color:#000 !important" transform="translate(-87.453125, -12)"><rect/><foreignObject width="174.90625" height="24"><div style="color: rgb(0, 0, 0) !important; display: table-cell; white-space: nowrap; line-height: 1.5; max-width: 200px; text-align: center;" xmlns="http://www.w3.org/1999/xhtml"><span style="color:#000 !important" class="nodeLabel "><p>Jupyter, NumPy, Pandas</p></span></div></foreignObject></g></g><g class="node default  " id="flowchart-Intermediate-7" transform="translate(249.44921875, 392)"><rect class="basic label-container" style="fill:#FF9800 !important;stroke:#E65100 !important;stroke-width:2px !important" x="-108.2734375" y="-39" width="216.546875" height="78"/><g class="label" style="color:#fff !important" transform="translate(-78.2734375, -24)"><rect/><foreignObject width="156.546875" height="48"><div style="color: rgb(255, 255, 255) !important; display: table-cell; white-space: nowrap; line-height: 1.5; max-width: 200px; text-align: center;" xmlns="http://www.w3.org/1999/xhtml"><span style="color:#fff !important" class="nodeLabel "><p>Phase 2: Intermediate<br />6-12 months</p></span></div></foreignObject></g></g><g class="node default  " id="flowchart-Skills2-11" transform="translate(127.98046875, 520)"><rect class="basic label-container" style="fill:#00BCD4 !important;stroke:#00838F !important" x="-89.1328125" y="-39" width="178.265625" height="78"/><g class="label" style="color:#fff !important" transform="translate(-59.1328125, -24)"><rect/><foreignObject width="118.265625" height="48"><div style="color: rgb(255, 255, 255) !important; display: table-cell; white-space: nowrap; line-height: 1.5; max-width: 200px; text-align: center;" xmlns="http://www.w3.org/1999/xhtml"><span style="color:#fff !important" class="nodeLabel "><p>Deep Learning<br />Neural Networks</p></span></div></foreignObject></g></g><g class="node default  " id="flowchart-Tools2-13" transform="translate(370.91796875, 520)"><rect class="basic label-container" style="fill:#FFC107 !important;stroke:#F57C00 !important" x="-103.8046875" y="-27" width="207.609375" height="54"/><g class="label" style="color:#000 !important" transform="translate(-73.8046875, -12)"><rect/><foreignObject width="147.609375" height="24"><div style="color: rgb(0, 0, 0) !important; display: table-cell; white-space: nowrap; line-height: 1.5; max-width: 200px; text-align: center;" xmlns="http://www.w3.org/1999/xhtml"><span style="color:#000 !important" class="nodeLabel "><p>TensorFlow, PyTorch</p></span></div></foreignObject></g></g><g class="node default  " id="flowchart-Advanced-15" transform="translate(249.44921875, 648)"><rect class="basic label-container" style="fill:#9C27B0 !important;stroke:#6A1B9A !important;stroke-width:2px !important" x="-98.9453125" y="-39" width="197.890625" height="78"/><g class="label" style="color:#fff !important" transform="translate(-68.9453125, -24)"><rect/><foreignObject width="137.890625" height="48"><div style="color: rgb(255, 255, 255) !important; display: table-cell; white-space: nowrap; line-height: 1.5; max-width: 200px; text-align: center;" xmlns="http://www.w3.org/1999/xhtml"><span style="color:#fff !important" class="nodeLabel "><p>Phase 3: Advanced<br />12-18 months</p></span></div></foreignObject></g></g><g class="node default  " id="flowchart-Skills3-19" transform="translate(112.78125, 776)"><rect class="basic label-container" style="fill:#00BCD4 !important;stroke:#00838F !important" x="-101.140625" y="-39" width="202.28125" height="78"/><g class="label" style="color:#fff !important" transform="translate(-71.140625, -24)"><rect/><foreignObject width="142.28125" height="48"><div style="color: rgb(255, 255, 255) !important; display: table-cell; white-space: nowrap; line-height: 1.5; max-width: 200px; text-align: center;" xmlns="http://www.w3.org/1999/xhtml"><span style="color:#fff !important" class="nodeLabel "><p>MLOps<br />Production Systems</p></span></div></foreignObject></g></g><g class="node default  " id="flowchart-Tools3-21" transform="translate(386.1171875, 776)"><rect class="basic label-container" style="fill:#FFC107 !important;stroke:#F57C00 !important" x="-122.1953125" y="-27" width="244.390625" height="54"/><g class="label" style="color:#000 !important" transform="translate(-92.1953125, -12)"><rect/><foreignObject width="184.390625" height="24"><div style="color: rgb(0, 0, 0) !important; display: table-cell; white-space: nowrap; line-height: 1.5; max-width: 200px; text-align: center;" xmlns="http://www.w3.org/1999/xhtml"><span style="color:#000 !important" class="nodeLabel "><p>Docker, Kubernetes, AWS</p></span></div></foreignObject></g></g><g class="node default  " id="flowchart-Career-23" transform="translate(249.44921875, 904)"><rect class="basic label-container" style="fill:#F44336 !important;stroke:#C62828 !important;stroke-width:3px !important" x="-79.8046875" y="-39" width="159.609375" height="78"/><g class="label" style="color:#fff !important" transform="translate(-49.8046875, -24)"><rect/><foreignObject width="99.609375" height="48"><div style="color: rgb(255, 255, 255) !important; display: table-cell; white-space: nowrap; line-height: 1.5; max-width: 200px; text-align: center;" xmlns="http://www.w3.org/1999/xhtml"><span style="color:#fff !important" class="nodeLabel "><p>Career Ready<br />AI Engineer</p></span></div></foreignObject></g></g></g></g></g></svg>